<?xml version="1.0" encoding="utf-8"?>
<!-- Generator: Adobe Illustrator 15.1.0, SVG Export Plug-In  -->
<!DOCTYPE svg PUBLIC "-//W3C//DTD SVG 1.1//EN" "http://www.w3.org/Graphics/SVG/1.1/DTD/svg11.dtd" [
	<!ENTITY ns_flows "http://ns.adobe.com/Flows/1.0/">
]>
<svg version="1.1"
	 xmlns="http://www.w3.org/2000/svg" xmlns:xlink="http://www.w3.org/1999/xlink" xmlns:a="http://ns.adobe.com/AdobeSVGViewerExtensions/3.0/"
	 x="0px" y="0px" width="800px" height="800px" viewBox="-52 -5.3 800 800" enable-background="new -52 -5.3 800 800"
	 xml:space="preserve">
<defs>
</defs>
<path fill="#FFFFFF" d="M355.339,790.801c-3.853,0.476-10.147,0.476-13.968,0c-3.854-0.463-18.83-7.67-26.851-12.286L33.834,616.479
	c-8.006-4.629-18.906-13.054-24.184-18.75c-5.3-5.679-9.628-30.575-9.628-39.813L0,233.841c0-9.252,1.848-22.902,4.153-30.332
	c2.254-7.404,21.639-23.592,29.663-28.234L314.447,13.132C322.454,8.5,334.468,2.604,341.12,0c0,0,0,0,7.141,0
	c7.125,0,7.125,0,7.125,0c6.678,2.604,18.661,8.5,26.694,13.132l280.678,162.03c8.021,4.636,18.914,13.084,24.211,18.746
	c5.304,5.68,9.632,30.562,9.632,39.82l0.036,324.123c0.019,9.228-1.845,22.877-4.131,30.307
	c-2.276,7.426-21.66,23.633-29.682,28.275L382.153,778.496C374.146,783.131,359.156,790.338,355.339,790.801z M352.019,19.11
	c-2.077-0.245-5.436-0.245-7.502,0c-2.061,0.212-12.708,5.596-20.714,10.224L43.149,191.453
	c-8.011,4.635-16.795,10.973-19.509,14.063c-2.71,3.087-4.935,19.074-4.935,28.326v324.076c0,9.237,1.085,20.021,2.411,23.943
	c1.336,3.886,14.062,13.792,22.069,18.438l280.686,162.023c8.006,4.624,17.945,9.029,22.059,9.808
	c4.123,0.745,18.862-5.184,26.875-9.808l280.691-162.107c8.003-4.632,16.787-10.951,19.501-14.056
	c2.714-3.094,4.935-19.081,4.935-28.309l-0.037-324.101c0-9.249-1.084-20.016-2.411-23.939c-1.317-3.905-14.04-13.814-22.047-18.442
	L372.711,29.312C364.693,24.692,354.045,19.323,352.019,19.11z"/>
<path fill="#FFFFFF" d="M498.909,364.864c-1.856,0-3.383,7.543-3.383,16.81v28.319c0,9.274,0.705,16.823,1.557,16.823
	c0.861,0,9.076-0.763,18.296-1.712c0,0,7.506-0.753,13.722-5.651c6.225-4.901,9.348-12.948,9.348-24.151
	c0-9.792-2.977-17.317-8.909-22.555c-5.959-5.274-10.541-5.844-10.541-5.844C509.798,365.771,500.754,364.864,498.909,364.864z"/>
<path fill="#FFFFFF" d="M636.752,464.534c-12.222,20.663-29.594,36.417-52.102,47.276c-22.395,10.706-59.753,14.427-59.753,14.427
	c-9.216,0.903-24.33,1.641-33.567,1.641h-95.809c-9.248,0-16.831-7.546-16.831-16.813V280.587c0-9.249,7.583-16.828,16.831-16.828
	h98.405c9.259,0,24.353,0.782,33.557,1.735c0,0,36.512,3.803,58.548,14.889c22.044,11.082,39.134,27.179,51.243,48.291
	c8.619,14.947,12.843,27.582,12.843,27.582c2.937,8.766,5.336,8.386,5.336-0.873l-0.059-120.091c0-9.23-6.582-20.597-14.588-25.217
	L362.812,49.588c-8.007-4.631-21.123-4.631-29.122,0L55.783,210.15c-8.04,4.643-14.588,15.984-14.588,25.232v11.305
	c0,9.227,7.572,16.809,16.831,16.809h80.12c9.264,0,21.773,5.728,27.866,12.704l25.798,29.722
	c6.078,6.998,16.009,7.013,22.083,0.022l25.953-29.762c6.066-6.977,18.614-12.686,27.873-12.686h79.938
	c9.258,0,16.816,7.572,16.816,16.81v231.025c0,9.267-7.559,16.828-16.816,16.828h-83.595c-9.263,0-16.834-7.562-16.834-16.828
	v-35.258c0-9.238-4.938-11.079-11.006-4.103l-22.329,25.77c-6.096,6.99-16.005,6.99-22.083,0l-22.332-25.77
	c-6.075-6.977-11.045-5.136-11.045,4.103v35.258c0,9.267-7.561,16.828-16.809,16.828H58.037c-9.249,0-16.81,7.579-16.81,16.825
	v11.374c0,9.25,6.557,20.604,14.574,25.238l277.987,160.461c7.987,4.62,21.112,4.62,29.144,0l277.943-160.537
	c8.018-4.636,14.577-15.983,14.577-25.236l-0.021-117.08c0-9.274-2.637-9.734-5.858-1.071
	C649.573,438.133,644.688,451.275,636.752,464.534z"/>
</svg>
